<?xml version="1.0" encoding="UTF-8" standalone="no"?>
<svg
   xmlns:dc="http://purl.org/dc/elements/1.1/"
   xmlns:cc="http://creativecommons.org/ns#"
   xmlns:rdf="http://www.w3.org/1999/02/22-rdf-syntax-ns#"
   xmlns:svg="http://www.w3.org/2000/svg"
   xmlns="http://www.w3.org/2000/svg"
   width="105mm"
   height="148mm"
   viewBox="0 0 105 148"
   version="1.1"
   id="svg1208">
  <defs
     id="defs1202" />
  <metadata
     id="metadata1205">
    <rdf:RDF>
      <cc:Work
         rdf:about="">
        <dc:format>image/svg+xml</dc:format>
        <dc:type
           rdf:resource="http://purl.org/dc/dcmitype/StillImage" />
        <dc:title></dc:title>
      </cc:Work>
    </rdf:RDF>
  </metadata>
  <g
     id="layer1">
    <path
       id="path865-6-73"
       style="fill:#000000;stroke:none;stroke-width:2.78129;paint-order:markers stroke fill"
       d="m 52.306505,11.12111 a 33.684371,6.7368741 0 0 0 -33.490829,6.736456 v 11.228587 c 8.17e-4,-3.705438 14.9639,-6.715138 33.490829,-6.736464 h 0.193776 c 18.602669,0 33.683526,3.015955 33.684646,6.736464 V 17.857566 a 33.684371,6.7368741 0 0 0 -33.684646,-6.736456 33.684371,6.7368741 0 0 0 -0.193776,0 z m 0,17.965043 c -1.262211,0.0013 -2.501866,0.01729 -3.72739,0.04694 -0.330112,0.0058 -0.652223,0.01729 -0.979424,0.02965 0.300959,-0.0058 0.595866,-0.01729 0.899356,-0.02965 -0.394059,0.0058 -0.777684,0.02306 -1.167423,0.03541 -0.02141,5.77e-4 -0.04233,0.0017 -0.06382,0.0022 -0.497758,0.01153 -0.98581,0.03541 -1.476098,0.05275 l -0.106775,24.861689 c -0.138847,0.0018 -0.262171,0.0058 -0.400359,0.0058 0.346829,-0.0045 0.700651,-0.0058 1.051376,-0.01153 -0.202959,0.0022 -0.422636,9.26e-4 -0.624327,0.0036 0.238453,-0.0029 0.49782,-0.002 0.738056,-0.0045 1.969203,-0.02306 3.97792,-0.04118 6.050633,-0.04118 18.604929,6.2e-5 33.684646,0.937288 33.684646,1.994844 V 35.283115 c -0.0011,-3.423289 -15.08199,-6.199152 -33.684646,-6.199152 z m 0,0 c -1.135022,0.0012 -2.256191,0.01153 -3.361846,0.03541 1.105823,-0.02306 2.226651,-0.03541 3.361846,-0.03541 z m -3.361846,0.03541 c -0.150294,0.0029 -0.295853,0.0058 -0.445591,0.01153 0.02594,-5.76e-4 0.0539,-5.76e-4 0.08005,-0.0012 0.123241,-0.0027 0.241911,-0.0058 0.365523,-0.01153 z m -3.660083,24.969574 c -1.900818,0.02306 -3.740603,0.06131 -5.506374,0.105742 1.765346,-0.04694 3.606034,-0.08005 5.506374,-0.105742 z m -5.506374,0.105742 c -0.3437,0.0058 -0.669348,0.01729 -1.007284,0.02965 0.336824,-0.01153 0.664721,-0.0173 1.007284,-0.02965 z m -1.007284,0.02965 c -0.660805,0.01729 -1.338836,0.03541 -1.976266,0.05275 l -0.02965,-24.471755 c -10.673923,1.040324 -17.949388,3.102755 -17.949962,5.478473 v 20.749026 c 4.65e-4,-0.774945 8.211642,-1.487212 19.95524,-1.810307 z M 36.765644,29.809332 c 0.222023,-0.02306 0.453995,-0.04118 0.678872,-0.06016 -0.2219,0.01729 -0.459793,0.03541 -0.678872,0.05843 z m 0.678872,-0.06016 c 0.807203,-0.07478 1.626768,-0.145435 2.469452,-0.207941 -0.842952,0.06246 -1.66201,0.133206 -2.469452,0.207941 z m 2.469452,-0.207941 c 0.391959,-0.02965 0.792639,-0.05275 1.191788,-0.08116 -0.399617,0.02965 -0.799335,0.05275 -1.191788,0.08116 z m 1.191788,-0.08116 c 0.770424,-0.05275 1.553411,-0.09755 2.34878,-0.137859 -0.796077,0.04118 -1.577693,0.08701 -2.34878,0.137859 z m 2.34878,-0.137859 c 0.424143,-0.02306 0.849204,-0.04118 1.279975,-0.06139 -0.431389,0.01729 -0.855194,0.04118 -1.279975,0.06139 z m 1.279975,-0.06139 c 0.347036,-0.01729 0.70605,-0.02306 1.057182,-0.03541 v -0.01153 c -0.357123,0.01153 -0.704262,0.02965 -1.057182,0.04694 z m 1.057182,-0.04694 c 0.485067,-0.01729 0.983743,-0.02965 1.476103,-0.04118 -0.491499,0.01153 -0.991884,0.02306 -1.476103,0.04118 z m 6.514811,30.719684 c -18.526929,0.0058 -33.490012,0.815603 -33.490829,1.812589 v 23.86721 c -0.0021,1.001206 15.0797,1.812683 33.684635,1.812683 18.604925,0 33.686726,-0.811477 33.684638,-1.812683 V 61.746024 C 86.183832,60.744946 71.102971,59.933378 52.50031,59.933378 Z M 18.815675,91.69066 v 20.74894 c 0.0011,3.4234 15.081974,6.19804 33.684635,6.19804 h 0.193776 c 18.526938,-0.0173 33.490014,-2.78855 33.490837,-6.19804 V 91.69066 c -6.34e-4,1.0521 -15.0797,1.993654 -33.684634,1.993712 -18.604934,-5.8e-5 -33.684641,-0.936164 -33.684641,-1.993712 z m 0,26.09991 v 12.3507 a 33.684371,6.7368741 0 0 0 33.684635,6.73765 33.684371,6.7368741 0 0 0 33.684638,-6.73765 v -12.3507 c 0.0021,3.72095 -15.079713,6.73754 -33.684638,6.73754 -18.604935,0 -33.686716,-3.01659 -33.684635,-6.73754 z" />
  </g>
</svg>
